PathFileType	4	(X/Y/Z)	 s11c0102.trc
DataRate	CameraRate	NumFrames	NumMarkers	Units	OrigDataRate	OrigDataStartFrame	OrigNumFrames
200	200	4	48	mm	200	1	2000
Frame#	Time	racr			lacr			c7			jug			rlel			rdr			llel			ldr			s2			lic			ric			lasi			rasi			rpsi			lpsi			rgt			lgt			rth1			rth2			rth3			rth4			rlfc			rmfc			rsh1			rsh2			rsh3			rsh4			rlmal			rcal			rtoe			rmt5			lth1			lth2			lth4			lth3			llfc			lmfc			llmal			lcal			lmt5			lsh1			lsh2			lsh3			lsh4			ltoe			SBIKE			LBIKE			RBIKE			
		X1	Y1	Z1	X2	Y2	Z2	X3	Y3	Z3	X4	Y4	Z4	X5	Y5	Z5	X6	Y6	Z6	X7	Y7	Z7	X8	Y8	Z8	X9	Y9	Z9	X10	Y10	Z10	X11	Y11	Z11	X12	Y12	Z12	X13	Y13	Z13	X14	Y14	Z14	X15	Y15	Z15	X16	Y16	Z16	X17	Y17	Z17	X18	Y18	Z18	X19	Y19	Z19	X20	Y20	Z20	X21	Y21	Z21	X22	Y22	Z22	X23	Y23	Z23	X24	Y24	Z24	X25	Y25	Z25	X26	Y26	Z26	X27	Y27	Z27	X28	Y28	Z28	X29	Y29	Z29	X30	Y30	Z30	X31	Y31	Z31	X32	Y32	Z32	X33	Y33	Z33	X34	Y34	Z34	X35	Y35	Z35	X36	Y36	Z36	X37	Y37	Z37	X38	Y38	Z38	X39	Y39	Z39	X40	Y40	Z40	X41	Y41	Z41	X42	Y42	Z42	X43	Y43	Z43	X44	Y44	Z44	X45	Y45	Z45	X46	Y46	Z46	X47	Y47	Z47	X48	Y48	Z48	
1	0.0050	443.705277	1383.578818	-84.436773	443.554424	1397.971453	-405.366454	374.614672	1517.388858	-245.779407	407.713847	1348.676623	-250.198465	579.390551	1153.728572	-27.659335	782.504031	925.903329	-61.767200	561.410069	1132.102106	-465.469004	798.282467	914.820579	-409.482817	-137.321629	1200.926800	-242.541357	81.416242	1224.882363	-443.964988	78.001326	1213.973981	-43.737607	111.094453	1147.404269	-410.873277	108.160078	1149.569579	-78.213140	-95.676765	1272.230798	-189.609487	-99.429913	1266.284897	-285.040522	25.085214	1064.175634	-24.472840	5.243082	1092.027058	-457.691003	144.792654	981.403791	-12.626706	231.563006	958.432900	-11.343526	293.509740	897.097094	-20.791277	249.607812	990.023582	-20.459212	383.278611	829.295988	-31.913462	398.170580	819.434608	-162.962515	281.974797	710.332845	-35.962551	236.436041	639.772832	-63.883533	160.824343	597.460920	-72.860456	256.610957	628.419437	-96.340103	55.394299	523.979936	-97.039534	-9.137261	543.195381	-148.905437	214.139534	363.444189	-138.835782	139.624702	378.310898	-71.565503	123.221819	991.870042	-474.691532	199.837023	953.999081	-468.039130	224.241139	980.185613	-457.355856	248.605574	878.522354	-462.466639	347.881403	776.267464	-432.723988	359.129895	771.202736	-306.827451	281.821953	351.642314	-410.208846	226.063646	310.531336	-376.774858	429.207218	257.748166	-438.711330	323.056806	650.463082	-452.919842	338.057444	566.660493	-439.881152	309.487589	483.267949	-435.262057	369.270669	566.777957	-417.475063	522.807333	280.713498	-367.342483	-205.629749	954.906081	-261.606280	1.151642	82.604451	-460.738488	-15.290464	81.065594	-62.402046	
2	0.0100	443.597063	1383.469902	-84.432605	443.482332	1397.933787	-405.365342	374.480870	1517.377805	-245.794813	407.603018	1348.659762	-250.207161	579.285236	1153.653600	-27.627609	782.486375	925.891085	-61.732667	561.358491	1132.100756	-465.442527	798.253747	914.835189	-409.464435	-137.393414	1200.881670	-242.540357	81.251767	1224.904217	-443.923948	77.899749	1213.980524	-43.743462	111.006603	1147.449396	-410.910655	108.080091	1149.575191	-78.217164	-95.811503	1272.211839	-189.595626	-99.520928	1266.260422	-285.058623	25.004740	1064.145503	-24.484818	5.190667	1092.054486	-457.708882	144.688505	981.344319	-12.647811	231.478105	958.345900	-11.364451	293.378067	897.003029	-20.779825	249.489816	989.910934	-20.470026	383.117859	829.184628	-31.919371	398.000449	819.269411	-162.938517	281.811632	710.193551	-35.967640	236.321032	639.613516	-63.889582	160.691160	597.316714	-72.875665	256.462951	628.272769	-96.336279	55.271710	523.776160	-97.037027	-9.197139	542.784305	-148.968855	214.059004	363.269956	-138.836209	139.537489	378.142252	-71.576950	123.220535	991.964582	-474.687188	199.875232	954.140235	-468.015280	224.257745	980.302883	-457.340368	248.664687	878.697334	-462.482767	347.996057	776.461116	-432.718178	359.256356	771.372764	-306.835193	281.896443	351.840298	-410.200872	226.151392	310.729247	-376.792641	429.303243	258.002102	-438.717456	323.156607	650.643789	-452.923750	338.129548	566.807892	-439.902382	309.578530	483.404036	-435.277251	369.387755	566.946570	-417.451455	522.884972	280.871689	-367.348441	-205.634988	954.895841	-261.606835	1.131445	82.684941	-460.701948	-15.293047	81.070645	-62.404822	
3	0.0150	443.481242	1383.403883	-84.430604	443.363037	1397.931625	-405.350918	374.366151	1517.382708	-245.755829	407.476987	1348.665072	-250.198459	579.201238	1153.570363	-27.555773	782.473420	925.898465	-61.699906	561.299056	1132.089120	-465.422712	798.251353	914.847991	-409.467528	-137.483848	1200.849007	-242.540963	81.091096	1224.879024	-443.834189	77.778279	1213.986879	-43.747679	110.888290	1147.455654	-410.889610	107.997814	1149.603956	-78.191479	-95.917475	1272.187913	-189.611383	-99.638836	1266.218207	-285.055752	24.946514	1064.104759	-24.504695	5.124459	1092.068102	-457.706145	144.585880	981.257855	-12.665318	231.381386	958.271444	-11.352003	293.224161	896.912576	-20.766006	249.391443	989.815622	-20.451548	382.947571	828.983417	-31.925966	397.816882	819.095177	-162.900070	281.670157	710.022531	-35.973565	236.165808	639.460096	-63.884616	160.539620	597.174600	-72.871937	256.344088	628.107436	-96.328532	55.159263	523.547128	-97.046087	-9.376205	542.688237	-148.943300	213.956133	363.117325	-138.814049	139.441920	377.972628	-71.559991	123.226344	992.058174	-474.682523	199.910986	954.248506	-468.010852	224.274905	980.414159	-457.325660	248.733783	878.848810	-462.489839	348.092455	776.650219	-432.732653	359.332626	771.555128	-306.841324	281.963674	351.994174	-410.203666	226.233632	310.955896	-376.814986	429.396995	258.202943	-438.718006	323.238814	650.814501	-452.938204	338.233206	566.980753	-439.900179	309.659566	483.595626	-435.302895	369.485311	567.092107	-417.443394	522.951403	281.082885	-367.361221	-205.640103	954.897061	-261.614939	1.147742	82.616856	-460.727996	-15.236271	81.073041	-62.476348	
4	0.0200	443.363881	1383.332772	-84.430681	443.264624	1397.906130	-405.361022	374.249401	1517.403202	-245.826504	407.095575	1346.485110	-251.199757	579.111278	1153.491474	-27.470617	782.469085	925.899915	-61.691038	561.238291	1132.095797	-465.401575	798.223546	914.861642	-409.479613	-137.588661	1200.808777	-242.528540	80.993275	1224.923663	-443.903026	77.732091	1213.971555	-43.708580	110.780402	1147.443952	-410.894340	107.922535	1149.610257	-78.185850	-96.032481	1272.173825	-189.613545	-99.728743	1266.191257	-285.066107	24.875206	1064.068486	-24.532847	5.084905	1092.075064	-457.716692	144.482455	981.199871	-12.660433	231.295240	958.203364	-11.356167	293.098852	896.807216	-20.777907	249.304936	989.710808	-20.458700	382.782215	828.867022	-31.943461	397.620629	818.886850	-162.905044	281.503945	709.858669	-35.979502	236.034747	639.221772	-63.868902	160.399222	597.033348	-72.879533	256.871159	628.522975	-95.565362	55.051584	523.359224	-97.029172	-9.512082	542.514345	-148.941263	213.858148	362.979822	-138.798350	139.327622	377.834178	-71.563463	123.218643	992.126870	-474.688669	199.919003	954.366395	-468.022350	224.243981	980.629066	-457.398774	248.806178	878.985454	-462.490028	348.193229	776.831160	-432.772253	359.457990	771.729772	-306.868443	282.035033	352.111466	-410.285951	226.315493	311.121860	-376.834746	429.492943	258.330464	-438.704420	323.341618	651.000991	-452.932807	338.353110	567.181029	-439.900925	309.729504	483.779411	-435.308896	369.619088	567.295351	-417.517629	523.039181	281.262630	-367.367766	-205.649741	954.893791	-261.615683	1.132593	82.684656	-460.698384	-15.299727	81.067327	-62.407283	
